<?xml version="1.0" encoding="utf-8"?>
<!-- Generator: Adobe Illustrator 23.0.1, SVG Export Plug-In . SVG Version: 6.00 Build 0)  -->
<!DOCTYPE svg PUBLIC "-//W3C//DTD SVG 1.1//EN" "http://www.w3.org/Graphics/SVG/1.1/DTD/svg11.dtd" [
	<!ENTITY ns_extend "http://ns.adobe.com/Extensibility/1.0/">
	<!ENTITY ns_ai "http://ns.adobe.com/AdobeIllustrator/10.0/">
	<!ENTITY ns_graphs "http://ns.adobe.com/Graphs/1.0/">
	<!ENTITY ns_vars "http://ns.adobe.com/Variables/1.0/">
	<!ENTITY ns_imrep "http://ns.adobe.com/ImageReplacement/1.0/">
	<!ENTITY ns_sfw "http://ns.adobe.com/SaveForWeb/1.0/">
	<!ENTITY ns_custom "http://ns.adobe.com/GenericCustomNamespace/1.0/">
	<!ENTITY ns_adobe_xpath "http://ns.adobe.com/XPath/1.0/">
]>
<svg version="1.1" id="Livello_1" xmlns:x="&ns_extend;" xmlns:i="&ns_ai;" xmlns:graph="&ns_graphs;"
	 xmlns="http://www.w3.org/2000/svg" xmlns:xlink="http://www.w3.org/1999/xlink" x="0px" y="0px" viewBox="0 0 496 496"
	 style="enable-background:new 0 0 496 496;" xml:space="preserve">
<style type="text/css">
	.st0{fill:url(#SVGID_1_);}
	.st1{fill:url(#SVGID_2_);}
	.st2{fill:url(#SVGID_3_);}
</style>
<metadata>
	<sfw  xmlns="&ns_sfw;">
		<slices></slices>
		<sliceSourceBounds  bottomLeftOrigin="true" height="496" width="496" x="0" y="0"></sliceSourceBounds>
	</sfw>
</metadata>
<g>
	<linearGradient id="SVGID_1_" gradientUnits="userSpaceOnUse" x1="248" y1="496" x2="248" y2="-9.094947e-13">
		<stop  offset="0" style="stop-color:#0030C4"/>
		<stop  offset="1" style="stop-color:#11C5FC"/>
	</linearGradient>
	<circle class="st0" cx="248" cy="248" r="248"/>
	<linearGradient id="SVGID_2_" gradientUnits="userSpaceOnUse" x1="248" y1="476" x2="248" y2="20">
		<stop  offset="0" style="stop-color:#1665F0"/>
		<stop  offset="1" style="stop-color:#13C6FC"/>
	</linearGradient>
	<circle class="st1" cx="248" cy="248" r="228"/>
	<linearGradient id="SVGID_3_" gradientUnits="userSpaceOnUse" x1="248.5" y1="84.4771" x2="248.5" y2="523.5878">
		<stop  offset="0" style="stop-color:#EEEEEE"/>
		<stop  offset="1" style="stop-color:#D0D0CD"/>
	</linearGradient>
	<path class="st2" d="M247.9,110.4l9.1-15.7c5.6-9.8,18.1-13.1,27.9-7.5s13.1,18.1,7.5,27.9l-87.5,151.5h63.3
		c20.5,0,32,24.1,23.1,40.8H105.8c-11.3,0-20.4-9.1-20.4-20.4s9.1-20.4,20.4-20.4h52l66.6-115.4l-20.8-36.1
		c-5.6-9.8-2.3-22.2,7.5-27.9c9.8-5.6,22.2-2.3,27.9,7.5L247.9,110.4L247.9,110.4z M169.2,328.4l-19.6,34
		c-5.6,9.8-18.1,13.1-27.9,7.5s-13.1-18.1-7.5-27.9l14.6-25.2C145.2,311.7,158.6,315.6,169.2,328.4L169.2,328.4z M338.1,266.7h53.1
		c11.3,0,20.4,9.1,20.4,20.4s-9.1,20.4-20.4,20.4h-29.5l19.9,34.5c5.6,9.8,2.3,22.2-7.5,27.9c-9.8,5.6-22.2,2.3-27.9-7.5
		c-33.5-58.1-58.7-101.6-75.4-130.6c-17.1-29.5-4.9-59.1,7.2-69.1C291.4,185.7,311.4,220.4,338.1,266.7L338.1,266.7z"/>
</g>
</svg>
